<svg width="51" height="86" viewBox="0 0 51 86" fill="none" xmlns="http://www.w3.org/2000/svg">
<g clip-path="url(#clip0_5_144)" filter="url(#filter0_d_5_144)">
<path fill-rule="evenodd" clip-rule="evenodd" d="M45.5855 1.16679C44.0051 -0.349278 41.4474 -0.351265 39.8686 1.16235L6.40523 33.2356C5.65617 33.9425 5.0595 34.7937 4.6515 35.7372C4.2435 36.6807 4.03269 37.6969 4.0319 38.7241C4.0311 39.7512 4.24033 40.7677 4.64686 41.7119C5.05339 42.656 5.64874 43.5081 6.3967 44.2162L40.0521 76.5785C40.8159 77.3018 41.8279 77.7087 42.8824 77.7168C43.937 77.7248 44.9551 77.3333 45.7299 76.6218C46.1138 76.2704 46.421 75.8444 46.6326 75.3701C46.8443 74.8958 46.9557 74.3833 46.9602 73.8645C46.9646 73.3456 46.8619 72.8313 46.6584 72.3535C46.4549 71.8758 46.155 71.4446 45.7772 71.0868L14.9742 41.4768C14.5999 41.1227 14.302 40.6965 14.0985 40.2242C13.8951 39.752 13.7904 39.2435 13.7908 38.7297C13.7912 38.2159 13.8967 37.7076 14.1008 37.2356C14.305 36.7637 14.6036 36.338 14.9785 35.9845L45.5812 6.65519C45.9559 6.30202 46.2545 5.87667 46.4586 5.40504C46.6627 4.93342 46.7682 4.4254 46.7686 3.91192C46.769 3.39844 46.6643 2.89024 46.4609 2.4183C46.2575 1.94636 45.9596 1.52055 45.5855 1.16679Z" fill="#978F8F"/>
</g>
<defs>
<filter id="filter0_d_5_144" x="0" y="7.62939e-06" width="51.0152" height="85.7177" filterUnits="userSpaceOnUse" color-interpolation-filters="sRGB">
<feFlood flood-opacity="0" result="BackgroundImageFix"/>
<feColorMatrix in="SourceAlpha" type="matrix" values="0 0 0 0 0 0 0 0 0 0 0 0 0 0 0 0 0 0 127 0" result="hardAlpha"/>
<feOffset dy="4"/>
<feGaussianBlur stdDeviation="2"/>
<feComposite in2="hardAlpha" operator="out"/>
<feColorMatrix type="matrix" values="0 0 0 0 0 0 0 0 0 0 0 0 0 0 0 0 0 0 0.25 0"/>
<feBlend mode="normal" in2="BackgroundImageFix" result="effect1_dropShadow_5_144"/>
<feBlend mode="normal" in="SourceGraphic" in2="effect1_dropShadow_5_144" result="shape"/>
</filter>
<clipPath id="clip0_5_144">
<rect width="42.9549" height="77.6844" fill="white" transform="translate(46.9549 77.7177) rotate(-179.956)"/>
</clipPath>
</defs>
</svg>
