<svg width="43" height="78" viewBox="0 0 43 78" fill="none" xmlns="http://www.w3.org/2000/svg">
<g clip-path="url(#clip0_18_2)">
<path fill-rule="evenodd" clip-rule="evenodd" d="M1.45903 76.5666C3.04055 78.0814 5.59831 78.0814 7.17593 76.5666L40.6144 44.4674C41.3629 43.7598 41.9589 42.9082 42.3661 41.9644C42.7734 41.0205 42.9834 40.0041 42.9834 38.977C42.9834 37.9499 42.7734 36.9335 42.3661 35.9897C41.9589 35.0458 41.3629 34.1942 40.6144 33.4867L6.93382 1.15057C6.16943 0.427904 5.15717 0.0217163 4.10261 0.0145021C3.04806 0.00728784 2.03028 0.399588 1.25597 1.11173C0.872386 1.46341 0.565472 1.88967 0.354229 2.36412C0.142985 2.83856 0.0319113 3.35109 0.0278846 3.86997C0.0238578 4.38885 0.126964 4.90302 0.330818 5.38066C0.534673 5.85829 0.834935 6.28922 1.21301 6.64674L32.039 36.2328C32.4136 36.5866 32.7118 37.0126 32.9156 37.4847C33.1195 37.9568 33.2246 38.4652 33.2246 38.979C33.2246 39.4928 33.1195 40.0012 32.9156 40.4733C32.7118 40.9454 32.4136 41.3713 32.039 41.7251L1.45903 71.0782C1.08458 71.4316 0.786385 71.8572 0.582613 72.329C0.378841 72.8008 0.273755 73.3089 0.273755 73.8224C0.273755 74.3358 0.378841 74.8439 0.582613 75.3157C0.786385 75.7875 1.08458 76.2131 1.45903 76.5666Z" fill="#978F8F"/>
</g>
<defs>
<clipPath id="clip0_18_2">
<rect width="42.9549" height="77.6844" fill="white" transform="translate(0.0301514 0.0167236)"/>
</clipPath>
</defs>
</svg>
