<svg width="40" height="40" viewBox="0 0 40 40" fill="none" xmlns="http://www.w3.org/2000/svg">
<g clip-path="url(#clip0_63_202)">
<path d="M20 0C8.97167 0 0 8.97167 0 20C0 31.0283 8.97167 40 20 40C31.0283 40 40 31.0283 40 20C40 8.97167 31.0283 0 20 0Z" fill="#69B342"/>
<path opacity="0.2" d="M20 0.416667C30.9583 0.416667 39.8767 9.27667 39.99 20.2083C39.99 20.1383 40 20.07 40 20C40 8.97167 31.0283 0 20 0C8.97167 0 0 8.97167 0 20C0 20.07 0.01 20.1383 0.01 20.2083C0.123333 9.27667 9.04333 0.416667 20 0.416667Z" fill="white"/>
<path opacity="0.1" d="M20 39.5834C9.04167 39.5834 0.123333 30.7234 0.01 19.7917C0.01 19.8617 0 19.93 0 20C0 31.0284 8.97167 40 20 40C31.0283 40 40 31.0284 40 20C40 19.93 39.99 19.8617 39.99 19.7917C39.8767 30.7234 30.9567 39.5834 20 39.5834Z" fill="black"/>
<path d="M31.6666 18.3333H21.6666V8.33331H18.3333V18.3333H8.33331V21.6666H18.3333V31.6666H21.6666V21.6666H31.6666V18.3333Z" fill="white"/>
<path d="M8.33331 21.6666L18.3333 31.6666V21.6666H8.33331ZM21.6666 18.3333H31.6666L21.6666 8.33331V18.3333ZM31.6666 18.3333V21.6666H21.6666V31.6666H18.3333L25.8016 39.135C28.9459 38.1741 31.8061 36.4557 34.1309 34.1309C36.4557 31.8061 38.1741 28.9459 39.135 25.8016L31.6666 18.3333Z" fill="url(#paint0_linear_63_202)"/>
<path d="M20 0C8.97167 0 0 8.97167 0 20C0 31.0283 8.97167 40 20 40C31.0283 40 40 31.0283 40 20C40 8.97167 31.0283 0 20 0Z" fill="url(#paint1_linear_63_202)"/>
</g>
<defs>
<linearGradient id="paint0_linear_63_202" x1="16.01" y1="16.01" x2="31.1566" y2="31.1566" gradientUnits="userSpaceOnUse">
<stop stop-opacity="0.1"/>
<stop offset="1" stop-opacity="0"/>
</linearGradient>
<linearGradient id="paint1_linear_63_202" x1="1.875" y1="11.5483" x2="38.125" y2="28.4517" gradientUnits="userSpaceOnUse">
<stop stop-color="white" stop-opacity="0.2"/>
<stop offset="1" stop-color="white" stop-opacity="0"/>
</linearGradient>
<clipPath id="clip0_63_202">
<rect width="40" height="40" fill="white"/>
</clipPath>
</defs>
</svg>
