<svg width="40" height="40" viewBox="0 0 40 40" fill="none" xmlns="http://www.w3.org/2000/svg">
<g clip-path="url(#clip0_63_191)">
<path d="M20 0C8.97167 0 0 8.97167 0 20C0 31.0283 8.97167 40 20 40C31.0283 40 40 31.0283 40 20C40 8.97167 31.0283 0 20 0Z" fill="#69B342"/>
<path d="M16.6434 32.4L12.1434 20.07L9.92337 21L9.14337 18.93L14.3634 16.8L17.3334 25.62C17.4534 26.02 17.5634 26.43 17.6634 26.85C17.7834 27.27 17.8834 27.68 17.9634 28.08H18.0834C18.1434 27.68 18.2134 27.27 18.2934 26.85C18.3734 26.43 18.4534 26.02 18.5334 25.62L23.2434 5.4H26.1834L19.7034 32.4H16.6434Z" fill="white"/>
<path opacity="0.2" d="M20 0.416667C30.9583 0.416667 39.8767 9.27667 39.99 20.2083C39.99 20.1383 40 20.07 40 20C40 8.97167 31.0283 0 20 0C8.97167 0 0 8.97167 0 20C0 20.07 0.01 20.1383 0.01 20.2083C0.123333 9.27667 9.04333 0.416667 20 0.416667Z" fill="white"/>
<path opacity="0.1" d="M20 39.5834C9.04167 39.5834 0.123333 30.7234 0.01 19.7917C0.01 19.8617 0 19.93 0 20C0 31.0284 8.97167 40 20 40C31.0283 40 40 31.0284 40 20C40 19.93 39.99 19.8617 39.99 19.7917C39.8767 30.7234 30.9567 39.5834 20 39.5834Z" fill="black"/>
</g>
<defs>
<clipPath id="clip0_63_191">
<rect width="40" height="40" fill="white"/>
</clipPath>
</defs>
</svg>
