<svg width="37" height="37" viewBox="0 0 37 37" fill="none" xmlns="http://www.w3.org/2000/svg">
<g clip-path="url(#clip0_62_166)">
<path d="M18.5 -0.000396729C28.7173 -0.000396729 37 8.28234 37 18.4996C37 28.7169 28.7173 36.9996 18.5 36.9996C8.28273 36.9996 0 28.7169 0 18.4996C0 8.28234 8.28273 -0.000396729 18.5 -0.000396729Z" fill="url(#paint0_linear_62_166)"/>
<path opacity="0.2" d="M18.4999 0.614547C8.38541 0.614547 0.168234 8.73171 0.00390234 18.8071C0.00216797 18.7048 0 18.6026 0 18.4999C0 8.28265 8.28265 0 18.4999 0C28.7173 0 37 8.28265 37 18.4999C37 18.6026 36.9977 18.7048 36.9962 18.8071C36.8321 8.73171 28.6146 0.614547 18.4999 0.614547Z" fill="#D8D8D8"/>
<path opacity="0.1" d="M23.083 18.1959L28.3905 23.5035C29.2246 24.3376 29.225 25.7024 28.3905 26.5362L26.7223 28.2046C25.889 29.0386 24.5233 29.0386 23.6892 28.2044L18.3819 22.8971L13.0742 28.2044C12.2402 29.0385 10.8752 29.0385 10.0411 28.2046L8.37337 26.5362C7.53928 25.7023 7.53928 24.3375 8.37337 23.5035L13.6808 18.1959L8.37337 12.8884C7.53928 12.0539 7.53928 10.689 8.37337 9.85531L10.0411 8.18712C10.8752 7.35217 12.2402 7.3526 13.0742 8.18712L18.3817 13.4946L23.6891 8.18712C24.5231 7.3526 25.889 7.35217 26.7222 8.18712L28.3904 9.85531C29.2249 10.6891 29.2245 12.0539 28.3904 12.8884L23.083 18.1959Z" fill="#2C2C2C"/>
<path d="M23.083 18.6054L28.3905 23.9131C29.2246 24.7471 29.225 26.112 28.3905 26.9458L26.7223 28.6142C25.889 29.4481 24.5233 29.4481 23.6892 28.6139L18.3819 23.3065L13.0742 28.614C12.2402 29.4481 10.8752 29.4481 10.0411 28.6143L8.37337 26.946C7.53928 26.112 7.53928 24.7471 8.37337 23.9133L13.6808 18.6055L8.37337 13.298C7.53928 12.4637 7.53928 11.0986 8.37337 10.2649L10.0411 8.59673C10.8752 7.76192 12.2402 7.76235 13.0742 8.59673L18.3817 13.9042L23.6891 8.59673C24.5231 7.76235 25.889 7.76192 26.7222 8.59673L28.3904 10.2649C29.2249 11.0987 29.2245 12.4637 28.3904 13.298L23.083 18.6054Z" fill="#FAFAFA"/>
<path opacity="0.2" d="M13.476 18.8102L13.6808 19.0151L8.37347 24.3227C8.02141 24.6746 7.80354 25.1386 7.75762 25.6342C7.69923 25.0185 7.90461 24.3818 8.37347 23.9131L13.476 18.8102ZM28.3906 23.9131C28.8598 24.382 29.0651 25.0188 29.0068 25.6346C28.9608 25.1388 28.7429 24.6747 28.3906 24.3227L23.0831 19.0151L23.2881 18.8102L28.3906 23.9131ZM28.3906 10.6745L26.7224 9.00618C25.8891 8.17137 24.5234 8.1718 23.6893 9.00618L18.382 14.3137L13.0743 9.00618C12.2403 8.1718 10.8753 8.17137 10.0412 9.00618L8.37347 10.6745C8.02142 11.0263 7.80355 11.4901 7.75762 11.9857C7.69923 11.37 7.90461 10.7335 8.37347 10.2648L10.0412 8.59658C10.8753 7.76177 12.2403 7.7622 13.0743 8.59658L18.3818 13.9041L23.6892 8.59658C24.5232 7.7622 25.8891 7.76177 26.7223 8.59658L28.3905 10.2648C28.8596 10.7335 29.0649 11.3698 29.0066 11.9855C28.9606 11.49 28.7427 11.0262 28.3906 10.6745Z" fill="#2C2C2C"/>
</g>
<defs>
<linearGradient id="paint0_linear_62_166" x1="18.4999" y1="36.8564" x2="18.4999" y2="0.482625" gradientUnits="userSpaceOnUse">
<stop stop-color="#F15454"/>
<stop offset="1" stop-color="#D93B3B"/>
</linearGradient>
<clipPath id="clip0_62_166">
<rect width="37" height="37" fill="white" transform="matrix(1 0 0 -1 0 37)"/>
</clipPath>
</defs>
</svg>
