<svg width="74" height="74" viewBox="0 0 74 74" fill="none" xmlns="http://www.w3.org/2000/svg">
<path d="M34.8609 61.7326L10.9899 37.8616L9.92928 38.9223L10.9899 37.8616L9.89151 36.7632C3.59797 30.4696 3.59761 20.2479 9.89042 13.9539C13.0532 10.805 17.177 9.23242 21.3039 9.23242C25.4469 9.23242 29.5696 10.8061 32.7163 13.9528L33.8147 15.0513L34.8754 16.1119L35.936 15.0513L37.0322 13.9551C37.0324 13.9549 37.0326 13.9548 37.0327 13.9546C40.1955 10.8052 44.3197 9.23242 48.4469 9.23242C52.5899 9.23242 56.7125 10.8061 59.8592 13.9528C66.1528 20.2464 66.1528 30.4672 59.8326 36.7609L59.8303 36.7632L58.7319 37.8616L34.8609 61.7326Z" stroke="#FF0303" stroke-width="3"/>
<path d="M55.2398 66.282C63.5653 66.282 70.3144 59.5329 70.3144 51.2074C70.3144 42.8819 63.5653 36.1328 55.2398 36.1328C46.9144 36.1328 40.1652 42.8819 40.1652 51.2074C40.1652 59.5329 46.9144 66.282 55.2398 66.282Z" fill="#8D3838"/>
<path d="M54.2 56.12V52.44H50.68V50.36H54.2V46.68H56.36V50.36H59.88V52.44H56.36V56.12H54.2Z" fill="white"/>
</svg>
