<svg width="74" height="74" viewBox="0 0 74 74" fill="none" xmlns="http://www.w3.org/2000/svg">
<path d="M34.861 61.7326L10.99 37.8616L9.92934 38.9223L10.99 37.8616L9.89157 36.7632C3.59803 30.4696 3.59767 20.2479 9.89048 13.9539C13.0532 10.805 17.1771 9.23242 21.304 9.23242C25.447 9.23242 29.5696 10.8061 32.7163 13.9528L33.8148 15.0513L34.8754 16.1119L35.9361 15.0513L37.0323 13.9551C37.0325 13.9549 37.0326 13.9548 37.0328 13.9546C40.1956 10.8052 44.3198 9.23242 48.4469 9.23242C52.59 9.23242 56.7126 10.8061 59.8593 13.9528C66.1528 20.2464 66.1528 30.4672 59.8326 36.7609L59.8304 36.7632L58.732 37.8616L34.861 61.7326Z" fill="#FF0303" stroke="#FF0303" stroke-width="3"/>
<path d="M55.2399 66.282C63.5654 66.282 70.3145 59.5329 70.3145 51.2074C70.3145 42.8819 63.5654 36.1328 55.2399 36.1328C46.9144 36.1328 40.1653 42.8819 40.1653 51.2074C40.1653 59.5329 46.9144 66.282 55.2399 66.282Z" fill="#8D3838"/>
<path d="M49.2 55.12V51.44H45.68V49.36H49.2V45.68H51.36V49.36H54.88V51.44H51.36V55.12H49.2ZM56.9664 57V54.62H59.7264V47.28H57.3464V45.46C58.0397 45.3267 58.6264 45.1667 59.1064 44.98C59.5864 44.7933 60.0531 44.5667 60.5064 44.3H62.6664V54.62H65.0464V57H56.9664Z" fill="white"/>
</svg>
