<svg width="69" height="68" viewBox="0 0 69 68" fill="none" xmlns="http://www.w3.org/2000/svg">
<g clip-path="url(#clip0_3_29)">
<path d="M40.913 35.4825C45.3986 32.7871 48.297 27.4636 48.297 22.5444C48.297 15.5362 42.4312 7.71942 34.4951 7.71942C26.5589 7.71942 20.6931 15.5362 20.6931 22.5444C20.6931 27.4636 23.5915 32.7871 28.0771 35.4825C17.4496 38.2453 9.65149 47.7468 9.65149 58.9329C9.65149 59.6741 10.2726 60.2806 11.0317 60.2806H57.9584C58.7175 60.2806 59.3386 59.6741 59.3386 58.9329C59.3386 47.7468 51.5405 38.2453 40.913 35.4825ZM23.4535 22.5444C23.4535 15.6036 29.3193 10.4149 34.4951 10.4149C39.6708 10.4149 45.5366 15.6036 45.5366 22.5444C45.5366 29.4851 39.6708 34.6739 34.4951 34.6739C29.3193 34.6739 23.4535 29.4851 23.4535 22.5444ZM12.4809 57.5852C13.171 46.3317 22.8324 37.3693 34.4951 37.3693C46.1577 37.3693 55.8191 46.3317 56.5092 57.5852H12.4809Z" fill="#04B4E4"/>
<path d="M844.671 -532.044V602.739H-386.465V-532.044H844.671ZM850.192 -537.435H-391.986V608.13H850.192V-537.435Z" fill="#0000FF"/>
</g>
<defs>
<clipPath id="clip0_3_29">
<rect width="69.0099" height="67.3861" fill="white" transform="translate(-0.0098877 0.306946)"/>
</clipPath>
</defs>
</svg>
